<svg id="svg" xmlns="http://www.w3.org/2000/svg" xmlns:xlink="http://www.w3.org/1999/xlink" width="400" height="400" viewBox="0, 0, 400,400"><g id="svgg"><path id="path0" d="M0.000 200.000 L 0.000 400.000 200.000 400.000 L 400.000 400.000 400.000 200.000 L 400.000 0.000 200.000 0.000 L 0.000 0.000 0.000 200.000 M396.000 199.992 L 396.000 395.585 395.100 395.801 C 394.605 395.921,306.540 395.969,199.400 395.909 L 4.600 395.800 4.500 200.100 L 4.399 4.400 200.200 4.400 L 396.000 4.400 396.000 199.992 M194.316 66.700 L 194.200 70.200 186.600 70.400 C 179.731 70.581,178.885 70.680,177.800 71.435 C 177.140 71.894,176.330 72.388,176.000 72.532 C 175.670 72.677,174.230 73.534,172.800 74.437 C 171.370 75.341,169.480 76.491,168.600 76.995 C 167.720 77.498,163.220 80.209,158.600 83.020 C 153.980 85.831,148.670 89.024,146.800 90.116 C 143.438 92.078,142.019 92.948,139.103 94.832 L 137.605 95.800 137.603 110.257 C 137.601 121.458,137.713 124.757,138.100 124.902 C 138.899 125.202,145.365 123.978,145.692 123.466 C 145.854 123.210,145.991 119.396,145.994 114.990 L 146.000 106.980 150.700 104.224 C 153.285 102.707,157.110 100.445,159.200 99.196 C 161.290 97.947,165.700 95.337,169.000 93.396 C 172.300 91.456,176.610 88.903,178.577 87.724 L 182.153 85.580 188.177 85.690 L 194.200 85.800 194.200 99.400 L 194.200 113.000 183.200 113.210 C 171.416 113.434,170.427 113.590,166.546 115.826 C 164.581 116.959,161.606 120.165,160.553 122.284 C 159.822 123.756,159.797 126.942,159.696 230.891 L 159.593 337.983 160.496 338.201 C 160.993 338.321,181.650 338.370,206.400 338.310 L 251.400 338.200 251.501 231.313 L 251.601 124.426 250.625 122.218 C 247.561 115.290,242.390 113.200,228.311 113.200 L 219.190 113.200 219.295 99.300 L 219.400 85.400 225.800 85.175 C 233.952 84.889,237.090 83.643,239.036 79.920 C 241.768 74.691,236.321 70.781,225.800 70.420 L 219.400 70.200 219.298 67.600 C 219.241 66.170,219.103 64.595,218.990 64.100 L 218.785 63.200 206.608 63.200 L 194.431 63.200 194.316 66.700 " stroke="none" fill="#fbf9f9" fill-rule="evenodd"></path><path id="path1" d="M7.600 5.491 C 6.830 5.582,6.069 5.784,5.909 5.940 C 5.554 6.284,5.460 393.994,5.815 394.348 C 6.365 394.898,393.529 394.631,394.080 394.080 C 394.851 393.309,394.851 6.691,394.080 5.920 C 393.584 5.424,11.739 5.001,7.600 5.491 M220.151 62.600 C 220.586 63.195,220.680 64.075,220.515 66.037 L 220.295 68.674 223.408 68.937 C 225.120 69.082,227.403 69.200,228.481 69.200 C 236.359 69.200,242.083 73.852,240.798 79.210 C 239.741 83.616,234.477 86.420,226.878 86.627 C 219.519 86.826,220.325 85.279,220.473 98.935 C 220.553 106.270,220.759 110.868,221.028 111.321 C 221.415 111.974,222.274 112.055,230.028 112.172 C 243.528 112.377,246.356 113.509,251.533 120.779 L 252.800 122.558 252.800 230.655 C 252.800 316.694,252.698 338.819,252.300 339.076 C 251.263 339.748,160.480 339.623,159.807 338.949 C 159.473 338.616,159.197 338.491,159.194 338.671 C 159.170 339.943,158.402 337.426,158.378 336.000 C 158.362 335.010,158.336 333.570,158.321 332.800 C 158.306 332.030,158.316 285.379,158.344 229.130 C 158.396 125.549,158.411 124.480,159.830 121.340 C 160.144 120.646,160.400 119.885,160.400 119.648 C 160.400 119.411,161.245 118.448,162.278 117.508 C 163.310 116.569,164.443 115.522,164.794 115.183 C 167.155 112.905,172.842 112.043,185.800 112.000 C 190.297 111.985,191.135 111.878,192.000 111.214 L 193.000 110.447 193.117 98.878 L 193.234 87.310 191.717 87.060 C 187.553 86.371,180.800 86.990,180.800 88.060 C 180.800 88.269,180.125 88.719,179.300 89.060 C 178.475 89.400,177.240 90.101,176.555 90.618 C 175.870 91.135,174.848 91.673,174.284 91.815 C 173.720 91.956,172.948 92.416,172.567 92.836 C 172.187 93.256,171.661 93.600,171.398 93.600 C 171.135 93.600,170.175 94.140,169.263 94.800 C 168.352 95.460,167.489 96.000,167.345 96.000 C 167.201 96.000,166.121 96.638,164.945 97.419 C 163.770 98.199,162.221 99.086,161.504 99.390 C 160.787 99.694,159.887 100.316,159.504 100.771 C 159.121 101.227,158.468 101.600,158.053 101.600 C 157.638 101.600,157.074 101.870,156.800 102.200 C 156.526 102.530,156.076 102.800,155.800 102.800 C 155.524 102.800,155.061 103.085,154.772 103.434 C 154.482 103.783,153.560 104.343,152.723 104.678 C 151.885 105.013,151.200 105.530,151.200 105.828 C 151.200 106.126,150.472 106.565,149.582 106.805 C 147.249 107.433,147.028 108.245,147.170 115.640 C 147.333 124.109,146.787 125.600,143.525 125.600 C 143.002 125.600,141.680 125.830,140.587 126.110 C 136.178 127.243,136.200 127.327,136.200 109.117 C 136.200 92.998,136.161 93.250,138.645 93.213 C 139.110 93.206,140.169 92.660,141.000 92.000 C 141.831 91.340,142.817 90.800,143.193 90.800 C 143.569 90.800,144.219 90.415,144.638 89.945 C 145.057 89.474,145.940 88.835,146.600 88.523 C 148.507 87.622,150.944 86.089,151.390 85.509 C 151.616 85.216,152.970 84.463,154.400 83.837 C 155.830 83.211,157.540 82.310,158.200 81.836 C 158.860 81.361,159.900 80.756,160.511 80.490 C 161.122 80.224,161.723 79.745,161.846 79.424 C 161.969 79.103,162.938 78.553,164.000 78.200 C 165.062 77.847,166.027 77.307,166.145 76.999 C 166.263 76.691,167.269 76.049,168.380 75.571 C 169.491 75.093,170.400 74.534,170.400 74.329 C 170.400 74.124,171.427 73.502,172.682 72.947 C 173.937 72.392,175.510 71.546,176.177 71.069 C 178.801 69.188,179.258 69.081,185.715 68.838 C 192.775 68.572,192.579 68.661,193.011 65.519 C 193.156 64.464,193.409 63.600,193.573 63.600 C 193.737 63.600,194.071 63.162,194.315 62.627 L 194.758 61.654 207.162 61.727 C 219.060 61.797,219.590 61.833,220.151 62.600 " stroke="none" fill="#eb1c24" fill-rule="evenodd"></path><path id="path2" d="M4.400 200.000 L 4.400 395.600 6.700 395.533 C 8.575 395.478,8.705 395.435,7.405 395.303 C 6.528 395.214,5.583 394.952,5.305 394.721 C 4.560 394.103,4.560 5.897,5.305 5.279 C 5.583 5.048,6.528 4.786,7.405 4.697 C 8.705 4.565,8.575 4.522,6.700 4.467 L 4.400 4.400 4.400 200.000 M392.669 4.691 C 394.709 4.877,395.101 5.310,395.303 7.608 C 395.437 9.137,395.471 9.033,395.530 6.900 L 395.600 4.400 393.300 4.470 C 391.357 4.529,391.259 4.563,392.669 4.691 M219.606 69.100 C 219.600 69.962,219.732 69.997,222.700 69.937 L 225.800 69.874 223.085 69.637 C 221.314 69.482,220.238 69.191,219.991 68.800 C 219.687 68.318,219.611 68.377,219.606 69.100 M192.812 69.184 C 192.488 69.389,192.345 69.679,192.494 69.828 C 192.860 70.194,194.000 69.728,194.000 69.213 C 194.000 68.705,193.586 68.695,192.812 69.184 M184.100 69.897 C 185.585 69.974,188.015 69.974,189.500 69.897 C 190.985 69.820,189.770 69.757,186.800 69.757 C 183.830 69.757,182.615 69.820,184.100 69.897 M192.400 86.546 C 193.935 87.095,194.215 87.071,193.816 86.427 C 193.671 86.192,192.978 86.010,192.276 86.023 L 191.000 86.045 192.400 86.546 M219.600 86.876 C 219.600 87.647,219.660 87.677,220.100 87.122 C 220.375 86.776,220.870 86.396,221.200 86.278 C 221.532 86.159,221.308 86.049,220.700 86.032 C 219.825 86.006,219.600 86.179,219.600 86.876 M152.697 103.566 C 151.173 104.543,150.985 104.781,151.935 104.533 C 152.382 104.416,153.058 103.978,153.436 103.560 C 154.268 102.641,154.137 102.642,152.697 103.566 M148.080 106.289 C 146.961 107.015,146.415 107.649,146.446 108.189 C 146.479 108.756,146.544 108.810,146.662 108.370 C 146.756 108.023,147.635 107.232,148.616 106.612 C 149.597 105.991,150.400 105.420,150.400 105.342 C 150.400 104.973,149.617 105.293,148.080 106.289 M219.632 110.500 C 219.614 111.765,219.758 112.800,219.951 112.800 C 220.144 112.800,220.219 111.945,220.118 110.900 C 219.843 108.066,219.667 107.921,219.632 110.500 M146.550 117.000 C 146.551 119.420,146.616 120.358,146.696 119.085 C 146.776 117.812,146.775 115.832,146.694 114.685 C 146.614 113.538,146.549 114.580,146.550 117.000 M169.000 113.619 C 168.442 113.871,168.685 113.907,169.800 113.738 C 170.680 113.604,171.475 113.428,171.567 113.347 C 171.910 113.044,169.768 113.271,169.000 113.619 M395.200 392.551 C 395.200 394.608,394.750 395.083,392.595 395.303 C 391.295 395.435,391.425 395.478,393.300 395.533 L 395.600 395.600 395.600 393.200 C 395.600 391.880,395.510 390.800,395.400 390.800 C 395.290 390.800,395.200 391.588,395.200 392.551 " stroke="none" fill="#ab3341" fill-rule="evenodd"></path><path id="path3" d="M7.405 4.695 C 6.528 4.786,5.583 5.048,5.305 5.279 C 4.422 6.012,4.578 394.117,5.461 394.851 C 6.629 395.820,393.716 395.655,394.686 394.686 C 395.801 393.571,395.801 6.429,394.686 5.314 C 394.018 4.646,13.784 4.039,7.405 4.695 M394.080 5.920 C 394.851 6.691,394.851 393.309,394.080 394.080 C 393.529 394.631,6.365 394.898,5.815 394.348 C 5.460 393.994,5.554 6.284,5.909 5.940 C 6.519 5.348,13.869 5.326,201.280 5.363 C 358.476 5.393,393.655 5.495,394.080 5.920 M194.596 62.006 C 194.473 62.206,199.712 62.370,206.689 62.384 C 220.833 62.414,220.105 62.214,219.737 65.978 C 219.439 69.028,219.994 69.592,223.329 69.624 C 228.408 69.674,237.850 70.920,235.006 71.166 C 234.790 71.185,235.240 71.539,236.006 71.954 C 236.773 72.369,237.563 72.611,237.762 72.493 C 237.961 72.374,238.003 72.472,237.855 72.711 C 237.707 72.950,237.909 73.383,238.302 73.673 C 242.220 76.560,239.153 83.623,233.400 84.961 C 229.845 85.787,227.844 86.049,224.461 86.130 C 219.158 86.257,219.500 85.288,219.701 99.600 C 219.793 106.090,220.007 111.715,220.177 112.100 C 220.457 112.736,221.294 112.800,229.343 112.803 C 238.498 112.806,239.529 112.948,244.347 114.864 C 245.894 115.480,249.533 118.881,250.360 120.486 C 250.668 121.084,251.055 121.490,251.218 121.389 C 252.109 120.838,252.977 337.583,252.088 338.472 C 251.913 338.647,230.986 338.801,205.585 338.813 C 178.012 338.826,159.652 338.980,160.025 339.195 C 160.805 339.645,251.602 339.528,252.300 339.076 C 252.698 338.819,252.800 316.694,252.800 230.655 L 252.800 122.558 251.533 120.779 C 246.356 113.509,243.528 112.377,230.028 112.172 C 222.274 112.055,221.415 111.974,221.028 111.321 C 220.759 110.868,220.553 106.270,220.473 98.935 C 220.325 85.279,219.519 86.826,226.878 86.627 C 244.587 86.146,246.146 69.200,228.481 69.200 C 227.403 69.200,225.120 69.082,223.408 68.937 L 220.295 68.674 220.515 66.037 C 220.891 61.556,221.685 61.812,207.190 61.727 C 200.383 61.687,194.716 61.813,194.596 62.006 M193.011 65.519 C 192.579 68.661,192.775 68.572,185.715 68.838 C 179.258 69.081,178.801 69.188,176.177 71.069 C 175.510 71.546,173.937 72.392,172.682 72.947 C 171.427 73.502,170.400 74.124,170.400 74.329 C 170.400 74.534,169.491 75.093,168.380 75.571 C 167.269 76.049,166.263 76.691,166.145 76.999 C 166.027 77.307,165.062 77.847,164.000 78.200 C 162.938 78.553,161.969 79.103,161.846 79.424 C 161.723 79.745,161.122 80.224,160.511 80.490 C 159.900 80.756,158.860 81.361,158.200 81.836 C 157.540 82.310,155.830 83.211,154.400 83.837 C 152.970 84.463,151.616 85.216,151.390 85.509 C 150.944 86.089,148.507 87.622,146.600 88.523 C 145.940 88.835,145.057 89.474,144.638 89.945 C 144.219 90.415,143.569 90.800,143.193 90.800 C 142.817 90.800,141.831 91.340,141.000 92.000 C 140.169 92.660,139.110 93.206,138.645 93.213 C 136.161 93.250,136.200 92.998,136.200 109.117 C 136.200 127.327,136.178 127.243,140.587 126.110 C 141.680 125.830,143.002 125.600,143.525 125.600 C 146.787 125.600,147.333 124.109,147.170 115.640 C 147.028 108.245,147.249 107.433,149.582 106.805 C 150.472 106.565,151.200 106.126,151.200 105.828 C 151.200 105.530,151.885 105.013,152.723 104.678 C 153.560 104.343,154.482 103.783,154.772 103.434 C 155.061 103.085,155.524 102.800,155.800 102.800 C 156.076 102.800,156.526 102.530,156.800 102.200 C 157.074 101.870,157.638 101.600,158.053 101.600 C 158.468 101.600,159.121 101.227,159.504 100.771 C 159.887 100.316,160.787 99.694,161.504 99.390 C 162.221 99.086,163.770 98.199,164.945 97.419 C 166.121 96.638,167.201 96.000,167.345 96.000 C 167.489 96.000,168.352 95.460,169.263 94.800 C 170.175 94.140,171.135 93.600,171.398 93.600 C 171.661 93.600,172.187 93.256,172.567 92.836 C 172.948 92.416,173.720 91.956,174.284 91.815 C 174.848 91.673,175.870 91.135,176.555 90.618 C 177.240 90.101,178.475 89.400,179.300 89.060 C 180.125 88.719,180.800 88.269,180.800 88.060 C 180.800 86.990,187.553 86.371,191.717 87.060 L 193.234 87.310 193.117 98.878 L 193.000 110.447 192.000 111.214 C 191.135 111.878,190.297 111.985,185.800 112.000 C 172.842 112.043,167.155 112.905,164.794 115.183 C 164.443 115.522,163.310 116.569,162.278 117.508 C 161.245 118.448,160.400 119.411,160.400 119.648 C 160.400 119.885,160.144 120.646,159.830 121.340 C 158.411 124.480,158.396 125.549,158.344 229.130 C 158.316 285.379,158.306 332.030,158.321 332.800 C 158.336 333.570,158.362 335.010,158.378 336.000 C 158.395 336.990,158.581 338.070,158.794 338.400 C 159.042 338.786,159.187 300.947,159.201 232.200 C 159.213 172.993,159.378 124.776,159.571 124.000 C 160.170 121.592,161.476 119.416,163.372 117.668 C 164.378 116.742,165.200 115.807,165.200 115.592 C 165.200 115.376,165.425 115.173,165.700 115.139 C 167.244 114.951,168.808 114.337,168.600 114.000 C 168.173 113.309,170.710 113.095,181.200 112.938 C 187.250 112.847,192.605 112.686,193.100 112.579 L 194.000 112.385 194.000 99.806 L 194.000 87.228 193.100 86.730 C 191.829 86.027,183.808 85.775,182.459 86.396 C 179.474 87.771,178.800 88.156,178.800 88.487 C 178.800 88.685,178.620 88.736,178.400 88.600 C 178.180 88.464,178.000 88.543,178.000 88.776 C 178.000 89.009,177.743 89.200,177.429 89.200 C 177.114 89.200,176.542 89.515,176.157 89.900 C 175.772 90.285,175.354 90.616,175.229 90.635 C 174.531 90.740,173.189 91.479,171.558 92.655 C 170.545 93.385,169.624 93.891,169.512 93.779 C 169.400 93.667,168.879 94.027,168.354 94.581 C 167.829 95.134,167.113 95.589,166.761 95.593 C 166.410 95.597,165.712 95.956,165.210 96.392 C 164.708 96.827,164.139 97.086,163.946 96.966 C 163.752 96.847,163.497 97.002,163.379 97.310 C 163.261 97.619,161.642 98.643,159.782 99.586 C 157.922 100.529,156.400 101.458,156.400 101.650 C 156.400 101.843,156.136 102.000,155.814 102.000 C 155.492 102.000,154.616 102.537,153.868 103.194 C 153.119 103.851,152.123 104.447,151.653 104.519 C 151.183 104.591,150.574 104.919,150.299 105.248 C 150.025 105.577,149.135 106.282,148.323 106.815 C 146.440 108.050,146.374 108.356,146.644 114.600 C 146.768 117.460,146.716 120.786,146.530 121.992 L 146.191 124.183 143.996 124.671 C 142.788 124.939,140.765 125.272,139.500 125.411 L 137.200 125.663 137.180 124.132 C 136.996 109.709,137.301 95.375,137.799 95.096 C 138.108 94.924,138.633 94.510,138.966 94.177 C 139.299 93.844,139.713 93.579,139.886 93.589 C 140.059 93.599,140.500 93.350,140.866 93.036 C 141.233 92.722,141.638 92.571,141.766 92.700 C 141.895 92.828,142.000 92.723,142.000 92.467 C 142.000 92.210,142.182 92.000,142.404 92.000 C 142.627 92.000,144.382 91.030,146.304 89.844 C 148.227 88.658,150.610 87.229,151.600 86.667 C 152.590 86.105,153.355 85.456,153.300 85.223 C 153.245 84.990,153.425 84.773,153.700 84.739 C 153.975 84.706,154.392 84.658,154.628 84.632 C 154.863 84.607,155.532 84.275,156.114 83.893 C 156.696 83.512,157.324 83.200,157.511 83.200 C 157.697 83.200,158.284 82.795,158.815 82.300 C 159.347 81.805,159.875 81.394,159.991 81.386 C 160.453 81.354,162.253 80.252,163.100 79.480 C 163.595 79.029,164.000 78.784,164.000 78.935 C 164.000 79.196,167.178 77.347,167.600 76.840 C 167.710 76.708,168.651 76.172,169.692 75.649 C 170.732 75.125,171.487 74.540,171.368 74.349 C 171.250 74.157,171.444 74.000,171.799 74.000 C 172.478 74.000,174.732 72.824,177.660 70.942 C 179.344 69.860,179.601 69.820,185.600 69.691 C 193.800 69.515,194.000 69.431,194.000 66.151 C 194.000 63.154,193.390 62.764,193.011 65.519 " stroke="none" fill="#b8303b" fill-rule="evenodd"></path><path id="path4" d="M395.798 200.000 C 395.798 307.690,395.844 351.745,395.900 297.900 C 395.956 244.055,395.956 155.945,395.900 102.100 C 395.844 48.255,395.798 92.310,395.798 200.000 M194.198 62.894 C 194.098 63.172,193.967 64.840,193.908 66.600 L 193.800 69.800 186.577 69.875 L 179.353 69.950 168.977 76.217 C 163.270 79.663,158.027 82.815,157.326 83.220 C 156.625 83.626,155.286 84.441,154.350 85.032 C 153.414 85.623,151.815 86.577,150.797 87.153 C 149.779 87.729,146.305 89.820,143.076 91.800 L 137.205 95.400 137.203 110.529 L 137.200 125.658 139.500 125.383 C 140.765 125.232,142.790 124.890,144.000 124.623 L 146.200 124.137 146.308 115.807 C 146.404 108.461,146.498 107.413,147.108 106.945 C 147.489 106.653,149.600 105.388,151.800 104.133 C 154.000 102.878,157.420 100.874,159.400 99.679 C 161.380 98.485,163.540 97.194,164.200 96.811 C 164.860 96.428,168.820 94.084,173.000 91.601 C 177.180 89.118,181.079 86.837,181.664 86.532 C 182.457 86.119,184.143 86.005,188.264 86.088 L 193.800 86.200 193.905 99.500 L 194.011 112.800 183.825 112.800 C 168.971 112.800,164.114 114.577,160.504 121.333 L 159.400 123.400 159.400 231.000 L 159.400 338.600 205.800 338.600 L 252.200 338.600 252.301 232.405 C 252.411 115.980,252.568 124.027,250.119 120.200 C 246.369 114.338,241.946 112.800,228.838 112.800 L 219.600 112.800 219.600 99.450 L 219.600 86.101 225.300 85.919 C 233.808 85.649,238.187 83.680,239.826 79.388 C 241.999 73.697,234.651 69.370,223.716 69.902 L 219.631 70.100 219.516 66.350 L 219.400 62.600 206.890 62.494 C 197.092 62.411,194.340 62.498,194.198 62.894 M218.990 64.100 C 219.103 64.595,219.241 66.170,219.298 67.600 L 219.400 70.200 225.800 70.420 C 236.321 70.781,241.768 74.691,239.036 79.920 C 237.090 83.643,233.952 84.889,225.800 85.175 L 219.400 85.400 219.295 99.300 L 219.190 113.200 228.311 113.200 C 242.390 113.200,247.561 115.290,250.625 122.218 L 251.601 124.426 251.501 231.313 L 251.400 338.200 206.400 338.310 C 181.650 338.370,160.993 338.321,160.496 338.201 L 159.593 337.983 159.696 230.891 C 159.797 126.942,159.822 123.756,160.553 122.284 C 161.606 120.165,164.581 116.959,166.546 115.826 C 170.427 113.590,171.416 113.434,183.200 113.210 L 194.200 113.000 194.200 99.400 L 194.200 85.800 188.177 85.690 L 182.153 85.580 178.577 87.724 C 176.610 88.903,172.300 91.456,169.000 93.396 C 165.700 95.337,161.290 97.947,159.200 99.196 C 157.110 100.445,153.285 102.707,150.700 104.224 L 146.000 106.980 145.994 114.990 C 145.991 119.396,145.854 123.210,145.692 123.466 C 145.365 123.978,138.899 125.202,138.100 124.902 C 137.713 124.757,137.601 121.458,137.603 110.257 L 137.605 95.800 139.103 94.832 C 142.019 92.948,143.438 92.078,146.800 90.116 C 148.670 89.024,153.980 85.831,158.600 83.020 C 163.220 80.209,167.720 77.498,168.600 76.995 C 169.480 76.491,171.370 75.341,172.800 74.437 C 174.230 73.534,175.670 72.677,176.000 72.532 C 176.330 72.388,177.140 71.894,177.800 71.435 C 178.885 70.680,179.731 70.581,186.600 70.400 L 194.200 70.200 194.316 66.700 L 194.431 63.200 206.608 63.200 L 218.785 63.200 218.990 64.100 M102.300 395.900 C 156.035 395.956,243.965 395.956,297.700 395.900 C 351.435 395.844,307.470 395.798,200.000 395.798 C 92.530 395.798,48.565 395.844,102.300 395.900 " stroke="none" fill="#cb6c6e" fill-rule="evenodd"></path></g></svg>